<svg width="20" height="21" viewBox="0 0 20 21" fill="none" xmlns="http://www.w3.org/2000/svg">
<path d="M10.5 7H9.00001V13L13.75 15.85L14.5 14.62L10.5 12.25V7ZM15.337 0.809998L19.944 4.655L18.664 6.19L14.054 2.347L15.337 0.809998ZM4.66301 0.809998L5.94501 2.346L1.33701 6.19L0.0570068 4.654L4.66301 0.809998ZM10 3C5.03001 3 1.00001 7.03 1.00001 12C1.00001 16.97 5.03001 21 10 21C14.97 21 19 16.97 19 12C19 7.03 14.97 3 10 3ZM10 19C6.14001 19 3.00001 15.86 3.00001 12C3.00001 8.14 6.14001 5 10 5C13.86 5 17 8.14 17 12C17 15.86 13.86 19 10 19Z" fill="#EE964B"/>
</svg>
