<svg width="24" height="24" viewBox="0 0 24 24" fill="none" xmlns="http://www.w3.org/2000/svg">
<circle cx="12" cy="12" r="12" fill="#E2E8F0"/>
<path d="M8.4161 17V15.4489L12.0404 12.093C12.3486 11.7947 12.6072 11.5263 12.816 11.2876C13.0281 11.049 13.1888 10.8153 13.2982 10.5866C13.4076 10.3546 13.4623 10.1044 13.4623 9.83594C13.4623 9.53764 13.3943 9.28078 13.2584 9.06534C13.1225 8.84659 12.9369 8.67921 12.7016 8.56321C12.4663 8.44389 12.1995 8.38423 11.9012 8.38423C11.5896 8.38423 11.3179 8.44721 11.0858 8.57315C10.8538 8.6991 10.6749 8.87973 10.5489 9.11506C10.423 9.35038 10.36 9.63044 10.36 9.95526H8.31667C8.31667 9.28906 8.46748 8.7107 8.76909 8.22017C9.0707 7.72964 9.49328 7.35014 10.0368 7.08168C10.5804 6.81321 11.2068 6.67898 11.9161 6.67898C12.6453 6.67898 13.28 6.80824 13.8202 7.06676C14.3638 7.32197 14.7864 7.67661 15.088 8.13068C15.3896 8.58475 15.5404 9.10511 15.5404 9.69176C15.5404 10.0762 15.4642 10.4557 15.3117 10.8303C15.1626 11.2048 14.8957 11.6207 14.5113 12.0781C14.1268 12.5322 13.5849 13.0774 12.8856 13.7138L11.3991 15.1705V15.2401H15.6746V17H8.4161Z" fill="#EE964B"/>
</svg>
