<svg width="24" height="24" viewBox="0 0 24 24" fill="none" xmlns="http://www.w3.org/2000/svg">
<circle cx="12" cy="12" r="12" fill="#E2E8F0"/>
<path d="M11.9745 17.1392C11.2321 17.1392 10.5709 17.0116 9.99086 16.7564C9.41415 16.4979 8.95842 16.1432 8.62367 15.6925C8.29223 15.2384 8.12154 14.7147 8.11159 14.1214H10.2792C10.2925 14.37 10.3737 14.5888 10.5228 14.7777C10.6753 14.9633 10.8775 15.1075 11.1294 15.2102C11.3812 15.313 11.6646 15.3643 11.9795 15.3643C12.3076 15.3643 12.5976 15.3063 12.8495 15.1903C13.1014 15.0743 13.2986 14.9136 13.4411 14.7081C13.5837 14.5026 13.6549 14.2656 13.6549 13.9972C13.6549 13.7254 13.5787 13.4851 13.4262 13.2763C13.2771 13.0642 13.0616 12.8984 12.7799 12.7791C12.5015 12.6598 12.1701 12.6001 11.7856 12.6001H10.836V11.0192H11.7856C12.1104 11.0192 12.3971 10.9628 12.6457 10.8501C12.8976 10.7375 13.0931 10.5817 13.2323 10.3828C13.3715 10.1806 13.4411 9.94531 13.4411 9.67685C13.4411 9.42164 13.3798 9.19792 13.2572 9.00568C13.1379 8.81013 12.9688 8.65767 12.7501 8.5483C12.5347 8.43892 12.2828 8.38423 11.9944 8.38423C11.7027 8.38423 11.4359 8.43726 11.194 8.54332C10.952 8.64607 10.7581 8.79356 10.6123 8.9858C10.4665 9.17803 10.3886 9.40341 10.3786 9.66193H8.31543C8.32537 9.07528 8.49275 8.55824 8.81756 8.1108C9.14237 7.66335 9.57987 7.31368 10.1301 7.06179C10.6836 6.80658 11.3083 6.67898 12.0044 6.67898C12.707 6.67898 13.3218 6.80658 13.8488 7.06179C14.3758 7.317 14.7851 7.66169 15.0768 8.09588C15.3718 8.52675 15.5176 9.01065 15.5143 9.54758C15.5176 10.1177 15.3403 10.5933 14.9823 10.9744C14.6277 11.3556 14.1653 11.5975 13.5953 11.7003V11.7798C14.3443 11.8759 14.9144 12.1361 15.3055 12.5604C15.6999 12.9813 15.8954 13.5083 15.8921 14.1413C15.8954 14.7214 15.7281 15.2367 15.39 15.6875C15.0553 16.1383 14.5929 16.4929 14.0029 16.7514C13.413 17.0099 12.7368 17.1392 11.9745 17.1392Z" fill="#EE964B"/>
</svg>
