<svg width="22" height="19" viewBox="0 0 22 19" fill="none" xmlns="http://www.w3.org/2000/svg">
<path d="M8 11C10.21 11 12 9.21 12 7C12 4.79 10.21 3 8 3C5.79 3 4 4.79 4 7C4 9.21 5.79 11 8 11ZM8 5C9.1 5 10 5.9 10 7C10 8.1 9.1 9 8 9C6.9 9 6 8.1 6 7C6 5.9 6.9 5 8 5ZM8 13C5.33 13 0 14.34 0 17V19H16V17C16 14.34 10.67 13 8 13ZM2 17C2.22 16.28 5.31 15 8 15C10.7 15 13.8 16.29 14 17H2ZM14.08 5.05C14.92 6.23 14.92 7.76 14.08 8.94L15.76 10.63C17.78 8.61 17.78 5.56 15.76 3.36L14.08 5.05V5.05ZM19.07 0L17.44 1.63C20.21 4.65 20.21 9.19 17.44 12.37L19.07 14C22.97 10.11 22.98 4.05 19.07 0Z" fill="#EE964B"/>
</svg>
