<svg width="21" height="24" viewBox="0 0 21 24" fill="none" xmlns="http://www.w3.org/2000/svg">
<path d="M16.25 23.5H9.97292C8.93792 23.5 7.92209 23.0687 7.20334 22.3212L0.207504 15.0283L2.19125 13.2746C2.78542 12.7475 3.6575 12.6421 4.35709 13.0158L6.66667 14.2425V5.09042C6.66667 3.76792 7.74 2.69458 9.0625 2.69458C9.22542 2.69458 9.38834 2.71375 9.55125 2.7425C9.6375 1.49667 10.6725 0.509583 11.9375 0.509583C12.7617 0.509583 13.4804 0.921666 13.9117 1.55417C14.1896 1.43917 14.4963 1.38167 14.8125 1.38167C16.135 1.38167 17.2083 2.455 17.2083 3.7775V4.04583C17.3617 4.01708 17.5246 3.99792 17.6875 3.99792C19.01 3.99792 20.0833 5.07125 20.0833 6.39375V19.6667C20.0833 21.7846 18.3679 23.5 16.25 23.5ZM2.9675 15.1433L8.58334 20.9892C8.9475 21.3629 9.44584 21.5833 9.96334 21.5833H16.25C17.3042 21.5833 18.1667 20.7208 18.1667 19.6667V6.39375C18.1667 6.12542 17.9558 5.91458 17.6875 5.91458C17.4192 5.91458 17.2083 6.12542 17.2083 6.39375V12H15.2917V3.7775C15.2917 3.50917 15.0808 3.29833 14.8125 3.29833C14.5442 3.29833 14.3333 3.50917 14.3333 3.7775V12H12.4167V2.90542C12.4167 2.63708 12.2058 2.42625 11.9375 2.42625C11.6692 2.42625 11.4583 2.63708 11.4583 2.90542V12H9.54167V5.09042C9.54167 4.82208 9.33084 4.61125 9.0625 4.61125C8.79417 4.61125 8.58334 4.83167 8.58334 5.09042V17.4242L3.45625 14.7121L2.9675 15.1433V15.1433Z" fill="#EE964B"/>
</svg>
