<svg width="9" height="10" viewBox="0 0 9 10" fill="none" xmlns="http://www.w3.org/2000/svg">
<path d="M0.708333 9.5H2.54167C2.79375 9.5 3 9.1625 3 8.75C3 8.3375 2.79375 8 2.54167 8H0.708333C0.45625 8 0.25 8.3375 0.25 8.75C0.25 9.1625 0.45625 9.5 0.708333 9.5ZM0.25 1.25C0.25 1.6625 0.45625 2 0.708333 2H8.04167C8.29375 2 8.5 1.6625 8.5 1.25C8.5 0.8375 8.29375 0.5 8.04167 0.5H0.708333C0.45625 0.5 0.25 0.8375 0.25 1.25ZM0.708333 5.75H5.29167C5.54375 5.75 5.75 5.4125 5.75 5C5.75 4.5875 5.54375 4.25 5.29167 4.25H0.708333C0.45625 4.25 0.25 4.5875 0.25 5C0.25 5.4125 0.45625 5.75 0.708333 5.75Z" fill="#EE964B"/>
</svg>
